<svg width="92" height="92" viewBox="0 0 92 92" fill="none" xmlns="http://www.w3.org/2000/svg">
<path d="M89.8624 33.2982L89.7807 33.2175C88.6848 32.1323 87.2659 31.425 85.732 31.199L88.3931 28.5672C89.7731 27.2028 90.5481 25.3525 90.5481 23.4237C90.5481 21.4948 89.773 19.6445 88.3931 18.2802L88.3091 18.1972C87.187 17.0854 85.729 16.3647 84.1555 16.144L84.609 15.6958C86.0003 14.3181 86.7821 12.4516 86.7821 10.5049C86.7821 8.55824 86.0002 6.69102 84.609 5.31323L84.5273 5.23249H84.5265C83.1345 3.8592 81.247 3.08805 79.2793 3.08805C77.3123 3.08805 75.4248 3.85913 74.032 5.23249L72.6093 6.63837V6.63911C72.4001 4.99028 71.64 3.45705 70.4496 2.28367L70.3634 2.19849C68.9407 0.790386 67.0096 0 64.9962 0C62.9836 0 61.0525 0.790348 59.6298 2.19849L46.9503 14.7276C46.574 15.0965 46.4279 15.6365 46.568 16.1416L49.3573 26.3043H49.358C50.0192 28.7331 51.4555 30.8863 53.4524 32.4456L57.2805 35.4469H57.2813C58.4874 36.3899 59.4755 37.5771 60.1793 38.929L66.5053 51.0204H66.506C66.6072 51.2027 66.5967 51.4264 66.4783 51.5989C66.3486 51.7975 66.1117 51.9004 65.8764 51.8604C63.686 51.7389 61.6786 50.6153 60.4462 48.8221L56.7836 43.4668C56.4321 42.9253 55.7612 42.6772 55.136 42.8579C54.5109 43.0379 54.0806 43.6031 54.0783 44.2467L53.5956 65.1678C53.5859 65.6367 53.3797 66.0811 53.0267 66.3952C52.6556 66.7226 52.1609 66.8789 51.6669 66.8248C50.7471 66.7507 50.0485 65.9767 50.08 65.0656L50.5882 50.1432H50.5875C50.6159 49.3381 49.9773 48.6626 49.1617 48.6344C48.3461 48.607 47.6625 49.2381 47.6348 50.044L46.9631 69.4253C46.9069 70.3786 46.0854 71.1105 45.1199 71.0682C44.6566 71.0571 44.2166 70.8623 43.901 70.5268C43.5847 70.1912 43.419 69.7438 43.4408 69.2861L43.5142 67.6832C43.5464 67.4943 43.5667 67.3039 43.5757 67.1128L44.3208 50.2512C44.3568 49.4453 43.7256 48.7631 42.91 48.7268C42.0945 48.6905 41.4041 49.3149 41.3673 50.1208L40.5743 67.3166V67.3158C40.5008 67.6084 40.3426 67.8728 40.1185 68.0773C39.7864 68.3691 39.3449 68.5091 38.9034 68.4632C38.4844 68.4343 38.0938 68.2402 37.821 67.9247C37.5474 67.6092 37.4132 67.1988 37.4484 66.7855L37.6688 64.2241V64.2011L38.6388 52.9C38.7078 52.0978 38.1058 51.3926 37.2948 51.3245C36.4829 51.2563 35.7693 51.8511 35.7004 52.6526L34.7289 63.9662C34.6966 64.3299 34.5182 64.6655 34.2334 64.8981C33.9291 65.1432 33.5355 65.2543 33.1457 65.2047C32.3969 65.1388 31.8384 64.4944 31.8864 63.7529L34.0318 39.8036C34.0528 39.6584 34.1218 39.3888 34.2162 38.9903C35.1502 35.0956 37.9943 23.2383 31.37 16.7096L31.2883 16.6348L31.1811 16.5437H31.1818C29.7823 15.3415 27.9322 14.7815 26.0921 15.003C22.4236 15.4282 21.548 18.7363 20.8449 21.3829C20.8029 21.5488 16.5047 37.8734 15.0917 41.1548L8.45937 56.5505L0.43112 64.485C-0.146071 65.0583 -0.143077 65.9842 0.436367 66.5538C1.0158 67.1242 1.9528 67.1219 2.52997 66.5486L10.762 58.4142L10.7613 58.4149C10.8954 58.2831 11.0026 58.1268 11.0761 57.9542L17.8196 42.2956C19.3158 38.8171 23.5345 22.8004 23.713 22.1197C24.5001 19.1495 25.0308 18.065 26.4416 17.9014H26.4423C27.4603 17.7821 28.4812 18.0939 29.2527 18.7598L29.3179 18.8176C32.9046 22.3909 33.5845 28.9535 31.3372 38.3127C31.2263 38.709 31.1416 39.1127 31.0854 39.5201L28.934 63.5149C28.8455 64.9364 29.4662 66.3104 30.5951 67.1955C31.7247 68.0799 33.2203 68.3629 34.601 67.9533C34.927 69.2317 35.7988 70.3072 36.9899 70.9013C38.181 71.4954 39.5746 71.5495 40.8091 71.0495C41.3443 72.3842 42.4709 73.4012 43.8652 73.8071C45.2587 74.2123 46.7633 73.9612 47.9454 73.1257C49.1267 72.2902 49.8531 70.9636 49.9146 69.5295V69.3554C50.4131 69.571 50.9453 69.7021 51.4888 69.7428C52.7721 69.845 54.0412 69.4199 54.9976 68.5673C55.9534 67.7148 56.5118 66.5103 56.5403 65.2385L56.9181 48.9014L57.9841 50.4591H57.9848C59.7561 53.0279 62.6435 54.6285 65.7859 54.7834C66.6202 54.8271 67.4432 54.5782 68.1096 54.0805C68.776 53.5827 69.2429 52.8679 69.4274 52.0635C69.6125 51.2583 69.5031 50.4146 69.1193 49.6814L68.3847 48.277C68.4866 48.2163 68.581 48.143 68.6657 48.0593L81.5972 35.2812V35.2819C82.406 34.4871 83.4997 34.0412 84.6405 34.0412C85.7806 34.0412 86.8752 34.4871 87.6838 35.2819L87.7655 35.3649C88.5698 36.1634 89.0211 37.2448 89.0211 38.3721C89.0211 39.4987 88.5698 40.5803 87.7655 41.3793L51.0343 77.675C48.0501 80.6179 44.1237 82.4459 39.9267 82.8453L31.7725 83.6126C31.4315 83.6438 31.1121 83.7904 30.8678 84.0274L25.5516 89.3101C24.9722 89.8827 24.9722 90.8108 25.5516 91.3842C26.1311 91.9568 27.0711 91.9568 27.6506 91.3842L32.6062 86.4874L40.2297 85.7697H40.229C45.1105 85.3045 49.6761 83.1787 53.146 79.755L89.8772 43.4593C91.2393 42.1105 92.0031 40.2816 92 38.3757C91.997 36.4706 91.2279 34.644 89.8621 33.299L89.8624 33.2982ZM52.5229 26.483C52.3984 26.1756 52.2927 25.8608 52.2058 25.5416L49.6407 16.2085L61.7138 4.2786C62.5841 3.42086 63.7632 2.93939 64.9925 2.93939C66.2218 2.93939 67.4003 3.42086 68.2705 4.2786L68.3567 4.36601C69.224 5.22449 69.7113 6.38814 69.7113 7.60135C69.7113 8.81463 69.224 9.97827 68.3567 10.8367L52.5229 26.483ZM59.1134 33.1613L55.2852 30.16C54.858 29.8252 54.4629 29.4533 54.1031 29.0489L76.1119 7.30107C76.9515 6.47148 78.0894 6.00557 79.2759 6.00557C80.4625 6.00557 81.6012 6.47148 82.4399 7.30107L82.5216 7.38181C83.3589 8.21141 83.8289 9.33511 83.8289 10.5062C83.8289 11.678 83.3589 12.801 82.5216 13.6306L60.9715 34.9253H60.9722C60.4085 34.2823 59.7864 33.692 59.1125 33.1624L59.1134 33.1613ZM79.5237 33.2087L66.9851 45.5949L62.7873 37.5892L62.6696 37.367L80.0147 20.2276C80.8445 19.4268 81.9607 18.9817 83.1204 18.9883C84.28 18.9943 85.3909 19.4528 86.2109 20.2631L86.2949 20.3461C87.1209 21.1623 87.5849 22.2704 87.5849 23.4244C87.5849 24.5792 87.1209 25.6866 86.2949 26.5035L79.5237 33.2087Z" fill="#4169E1"/>
</svg>
