<svg width="60" height="95" viewBox="0 0 60 95" fill="none" xmlns="http://www.w3.org/2000/svg">
<path d="M24.4786 14.797C24.4786 15.4567 24.3254 16.0466 24.0853 16.4662C23.8429 16.8901 23.5306 17.113 23.2177 17.113C22.9053 17.113 22.5932 16.8902 22.3508 16.4663C22.1108 16.0466 21.9576 15.4567 21.9576 14.797C21.9576 14.1373 22.1108 13.5472 22.3508 13.1273C22.5933 12.7032 22.9054 12.4803 23.2177 12.4803C23.5306 12.4803 23.8428 12.7032 24.0853 13.1273C24.3254 13.5472 24.4786 14.1373 24.4786 14.797Z" fill="#4169E1" stroke="#4169E1" stroke-width="0.3"/>
<path d="M36.1248 27.599L36.1248 27.5992H36.1318C36.684 27.5992 37.0672 28.0506 37.0672 28.6287C37.0672 28.8467 36.9557 29.0771 36.7626 29.256C36.5716 29.433 36.3106 29.5499 36.0283 29.5512C33.4722 29.3921 31.7202 28.236 30.5779 26.8577C29.4313 25.4743 28.8998 23.8674 28.7944 22.823L28.7947 22.823L28.7931 22.813C28.6997 22.2624 29.066 21.7949 29.6459 21.6997L29.6461 21.6996C30.2048 21.6072 30.6744 21.9679 30.7739 22.5317C30.7763 22.5812 30.789 22.6798 30.8129 22.8086C30.8404 22.9573 30.8848 23.1565 30.9523 23.3894C31.0874 23.8548 31.3161 24.4578 31.6912 25.062C32.4441 26.2745 33.787 27.4889 36.1248 27.599Z" fill="#4169E1" stroke="#4169E1" stroke-width="0.3"/>
<path d="M52.6269 73.3845C56.2348 73.3845 59.2042 76.3211 59.2044 79.8819L59.2043 79.8819C59.2043 83.0289 56.8671 85.7494 54.0167 86.1666L53.9317 86.179L53.8994 86.2587C53.685 86.7879 53.4713 87.212 53.2544 87.64C50.8935 92.0926 46.279 94.85 41.1255 94.85H18.9893C18.902 94.85 18.8116 94.8285 18.6997 94.8009L18.6923 94.7991C18.5888 94.7735 18.4653 94.7431 18.3383 94.7431H18.2767L18.2329 94.7864C18.1713 94.8472 18.1193 94.85 18.0128 94.85H9.22363C5.07285 94.85 1.66896 91.4839 1.66896 87.3867C1.66896 84.0255 3.9005 81.1866 7.09546 80.2397L7.20283 80.2078V80.0958V30.9871V30.8592L7.07657 30.839C3.1355 30.2074 0.15 26.7324 0.15 22.6236V15.3327C0.15 6.94689 7.02586 0.15 15.5167 0.15C23.5774 0.15 30.2385 6.4162 30.7756 14.1644L30.7853 14.304H30.9253H46.0083C47.253 14.304 48.2947 14.9162 49.0312 15.8477C49.6595 16.8869 49.8648 18.0202 49.5536 19.151C47.8263 24.588 42.978 33.4221 30.0398 34.9136L29.9069 34.9289V35.0626V37.7432V37.7862L29.9297 37.8226L52.0659 73.3139L52.11 73.3845H52.1932H52.6269ZM27.7777 37.1425H27.9276L27.9277 36.9925L27.9284 35.2775L27.9285 35.095L27.7494 35.1303C27.2229 35.2341 26.8027 35.2344 26.2593 35.2344H26.0421H9.4399H9.2899V35.3844V36.9925V37.1425H9.4399H27.7777ZM47.3281 17.1824C47.0761 16.6984 46.5847 16.4738 45.9235 16.3651L45.9114 16.3632H45.8992H43.7291H43.5791V16.5132C43.5791 18.9578 45.3806 20.283 46.4738 20.9308L46.6202 21.0176L46.6879 20.8614L46.6931 20.8493C47.0161 20.1041 47.3433 19.349 47.5625 18.5913L47.5626 18.5914L47.5638 18.5864C47.6781 18.1342 47.6829 17.6562 47.3281 17.1824ZM2.12759 22.6244V22.8223L2.13076 22.8214C2.2364 26.2459 5.08709 28.9927 8.68198 28.8858C12.2346 28.8846 15.1233 26.0321 15.1233 22.5168V14.6896C15.1233 14.1309 15.5972 13.6601 16.167 13.6601C16.7368 13.6601 17.2106 14.1309 17.2106 14.6896V22.5168C17.2106 26.9395 13.8009 30.5241 9.42515 30.9456L9.28953 30.9587V31.0949V32.9184V33.0684H9.43953H25.9334H26.1506C37.1693 33.0684 42.7508 27.888 45.5958 22.9136L45.6731 22.7784L45.5351 22.7062C43.7208 21.7572 41.6009 19.6554 41.6009 16.5131V16.3631H41.4509H29.7317C29.1619 16.3631 28.688 15.8923 28.688 15.3335C28.688 8.06422 22.7592 2.20901 15.4078 2.20901C8.05564 2.20901 2.12759 8.06499 2.12759 15.3335V22.6244ZM51.3484 86.708L51.3816 86.6459L51.3814 86.6454C53.4333 82.855 53.0921 78.4281 50.4724 74.8647L28.2307 39.1639L28.1867 39.0932H28.1034H9.22226H9.07227L9.07226 39.2432L9.07151 79.774L9.0715 79.924H9.22151C9.85835 79.924 10.6022 80.0289 11.2364 80.2381L11.2475 80.2417L11.259 80.2436C11.8042 80.3337 12.094 80.8709 11.9012 81.4418L11.8974 81.453L11.8955 81.4647C11.8049 81.9997 11.2619 82.2903 10.6795 82.0982L10.6707 82.0954L10.6617 82.0936C10.1222 81.9864 9.56505 81.876 9.00512 81.876C5.88371 81.876 3.42957 84.4094 3.42957 87.3873C3.42957 90.476 5.99594 92.8985 9.00512 92.8985H13.2371H13.5824L13.3467 92.6461C12.0679 91.2767 11.217 89.3827 11.217 87.3873C11.217 84.1321 13.4503 81.2923 16.4297 80.3462L16.5343 80.313V80.2032V60.3667C16.5343 59.808 17.0081 59.3372 17.5779 59.3372C18.1477 59.3372 18.6216 59.808 18.6216 60.3667L18.6208 79.7743L18.6208 79.9243H18.7708H18.8791C19.6248 79.9243 20.3702 80.0292 21.1174 80.2403L21.1255 80.2426L21.1337 80.2439C21.6789 80.334 21.9688 80.8712 21.776 81.4421L21.7722 81.4533L21.7702 81.4651C21.6797 82.0001 21.1367 82.2906 20.5542 82.0986L20.5455 82.0957L20.5365 82.0939C19.997 81.9867 19.4398 81.8764 18.8799 81.8764C15.7585 81.8764 13.3043 84.4097 13.3043 87.3876C13.3043 90.4763 15.8707 92.8988 18.8799 92.8988H26.9099H27.0599V92.7488V64.8705C27.0599 64.3118 27.5338 63.841 28.1036 63.841C28.6734 63.841 29.1472 64.3118 29.1472 64.8705V92.7488V92.8988L29.2972 92.8988L41.0158 92.8995C45.4119 92.8995 49.2602 90.6173 51.3484 86.708ZM54.5416 83.7135L54.5068 83.8921H54.6888H54.6889H54.7263L54.7594 83.8745C56.2103 83.1026 57.2262 81.6617 57.2262 79.9889C57.2262 77.77 55.6531 75.9966 53.6356 75.5538L53.3338 75.4875L53.4684 75.7656C54.6489 78.2044 55.0777 80.9597 54.5416 83.7135Z" fill="#4169E1" stroke="#4169E1" stroke-width="0.3"/>
</svg>
