<svg width="92" height="82" viewBox="0 0 92 82" fill="none" xmlns="http://www.w3.org/2000/svg">
<path d="M90.491 30.086L90.5484 30.1049C91.2693 30.368 91.7494 31.0472 91.75 31.8069V44.2025C91.7494 44.9819 91.2441 45.676 90.4916 45.9236L90.4916 45.9236L85.6493 47.5188L85.4775 47.5754V47.7562V66.9292C85.4768 68.8695 84.5155 70.6881 82.9019 71.7979C81.2872 72.9078 79.2257 73.1677 77.3806 72.4933C75.5364 71.8191 74.1433 70.2962 73.6498 68.4174L73.4882 68.4598L73.5846 68.3038L73.5839 68.3031L72.9341 67.6604L73.0483 68.0955L32.1074 54.2267L32.0684 54.2135H32.0272H30.7223H30.3833L30.4835 54.5373L34.6949 68.1508C34.9548 69.4132 35.5809 70.5739 36.4949 71.492L36.4963 71.4935C37.5692 72.5536 38.1715 73.9907 38.1715 75.4889C38.1715 76.9868 37.5692 78.4241 36.4963 79.4842C35.4234 80.5445 33.9676 81.1408 32.4488 81.1414H26.0909H26.0901C24.7936 81.1454 23.5352 80.713 22.522 79.9165C21.5918 79.1852 20.9194 78.1877 20.5933 77.0648H20.6055L20.5106 76.744L13.8552 54.2346L13.8092 54.079L13.6484 54.0576C8.41496 53.3625 3.90454 50.0774 1.68415 45.3464L1.45783 45.4526L1.68414 45.3464C-0.536071 40.6164 -0.159467 35.0937 2.68212 30.6994C5.5246 26.3049 10.4399 23.6466 15.7203 23.6506H15.7205H31.9413H31.9928L32.04 23.6303L73.4664 5.81192L73.5798 5.76313L73.61 5.64339C74.086 3.75569 75.4658 2.21622 77.3074 1.5226L77.3074 1.52257C79.1494 0.828167 81.2184 1.06822 82.8466 2.1649L82.8467 2.16497C84.4749 3.26051 85.4563 5.07277 85.4769 7.01732V28.2541V28.435L85.6487 28.4915L90.491 30.086ZM33.7631 50.8644L33.808 50.9627L33.9103 50.9974L73.1015 64.2739L73.4317 64.3857V64.0371V10.1676V9.78791L73.083 9.93793L33.8645 26.8068L33.7756 26.845L33.7356 26.9331C30.2811 34.5474 30.291 43.2587 33.7631 50.8644ZM3.93599 38.9309H3.9369L3.93583 38.931C3.94078 41.9384 5.12242 44.8279 7.23256 46.9937C9.3426 49.1602 12.2182 50.4361 15.257 50.5555L15.257 50.5557H15.2668H15.2979H15.2983L29.3456 50.5806L29.7065 50.5813L29.5803 50.2432C26.8581 42.9511 26.7998 34.9476 29.4163 27.6167L29.5356 27.2826H29.1809H15.7205H15.7202C12.5966 27.2862 9.60155 28.5141 7.39216 30.6973C5.18262 32.8806 3.93886 35.8415 3.93599 38.9309ZM31.1362 69.0742L31.1339 69.0639L31.1308 69.0538L26.5873 54.3894L26.5328 54.2134H26.3485H18.0188H17.6843L17.7791 54.5342L24.073 75.8304C24.2549 76.7953 25.0999 77.4968 26.0886 77.5093H26.0918H32.4496C33.2742 77.5093 34.0191 77.0193 34.3358 76.263C34.6527 75.507 34.477 74.6369 33.8924 74.0592L33.8923 74.059C32.5074 72.6933 31.5507 70.9629 31.1362 69.0742ZM87.8965 42.9504L88.0683 42.8938L88.0683 42.713L88.069 33.2963L88.069 33.1154L87.8972 33.0588L85.8061 32.3706L85.478 32.2625L85.478 32.608L85.4773 43.4012L85.4772 43.7467L85.8054 43.6387L87.8965 42.9504ZM79.4556 69.2457C80.7453 69.2457 81.7959 68.2109 81.7959 66.9294V7.01599C81.7959 5.7338 80.7453 4.69975 79.4556 4.69975C78.1653 4.69975 77.1146 5.73374 77.1146 7.01599V66.9294C77.1146 68.2109 78.1652 69.2457 79.4556 69.2457Z" fill="#4169E1" stroke="white" stroke-width="0.5"/>
</svg>
