<svg width="88" height="60" viewBox="0 0 88 60" fill="none" xmlns="http://www.w3.org/2000/svg">
<path d="M46.2498 37.9211C54.9325 37.9211 61.9713 30.8283 61.9713 22.0791C61.9713 13.3298 54.9325 6.23706 46.2498 6.23706C37.5671 6.23706 30.5283 13.3298 30.5283 22.0791C30.5283 30.8283 37.5671 37.9211 46.2498 37.9211Z" fill="#FFD700"/>
<path d="M12.1554 36.5167C5.48401 29.7942 5.48401 18.8948 12.1554 12.1723C18.8268 5.44974 29.6433 5.44974 36.3147 12.1723L59.5054 35.5409L35.3462 59.8854L12.1554 36.5167Z" fill="#4169E1"/>
<path d="M12.7682 37.1217C9.6554 33.9849 9.65539 28.8994 12.7682 25.7627C15.881 22.626 20.928 22.626 24.0409 25.7627L39.4728 41.3129L28.2001 52.6719L12.7682 37.1217Z" fill="#FFD700"/>
<path d="M71.4603 11.8446C70.1168 10.4908 70.1168 8.29575 71.4603 6.9419C72.8039 5.58805 74.9821 5.58805 76.3258 6.9419L82.9863 13.6536L78.121 18.5564L71.4603 11.8446Z" fill="#FFD700"/>
<path d="M79.8989 6.98633C81.2425 5.63249 83.4207 5.63249 84.7643 6.98633C86.1079 8.34017 86.1079 10.5352 84.7643 11.889L78.1036 18.6007L73.2383 13.698L79.8989 6.98633Z" fill="#4169E1"/>
<path d="M22.7295 47.1709L51.2739 18.4076C56.5771 13.0637 65.1752 13.0637 70.4783 18.4076C72.1657 20.1079 72.1657 22.8646 70.4783 24.565L35.387 59.9254L22.7295 47.1709Z" fill="#4169E1"/>
<path d="M60.6714 22.2036C61.6628 22.2036 62.4664 21.3938 62.4664 20.3949C62.4664 19.396 61.6628 18.5862 60.6714 18.5862C59.6801 18.5862 58.8765 19.396 58.8765 20.3949C58.8765 21.3938 59.6801 22.2036 60.6714 22.2036Z" fill="#FFD700"/>
<path d="M75.3699 22.4984C74.6777 22.3917 73.1127 20.8316 70.2655 18.2744C68.8767 23.209 66.489 27.8248 69.2752 25.7588C72.5556 23.3264 74.109 22.7355 75.3699 22.4984Z" fill="#4169E1"/>
</svg>
